<?xml version="1.0" encoding="utf-8"?>
<!-- Generator: Adobe Illustrator 22.0.0, SVG Export Plug-In . SVG Version: 6.00 Build 0)  -->
<svg version="1.1" id="Layer_1" xmlns="http://www.w3.org/2000/svg" xmlns:xlink="http://www.w3.org/1999/xlink" x="0px" y="0px"
	 viewBox="0 0 59.6 22.3" style="enable-background:new 0 0 59.6 22.3;" xml:space="preserve">
<style type="text/css">
	.st0{fill:url(#SVGID_1_);}
	.st1{fill:#3A5926;}
	.st2{fill:#2895B2;}
	.st3{fill:#186689;}
	.st4{fill:#F9EC23;}
	.st5{fill:#609E38;}
	.st6{fill:#AEE21E;}
	.st7{opacity:0.9;fill:#2895B2;}
</style>
<g>
	<path class="st2" d="M9.6,21.4c0.4-2.5,3.2-4.2,4.4-6c2-3-3.5-4.8-2.4-7.8c-3.4,2.4-1.7,3.6-0.5,6.7C12,16.6,9.1,18.7,9.6,21.4z"/>
	<path class="st3" d="M6.9,19.1c0.2,1.1,0.7,2,1.2,2.8c0.3-0.1,0.5-0.1,0.8-0.2c-0.2-0.9-0.3-2.1,0.3-3.1c0.9-1.6,1.4-4.4-0.6-5.4
		C9.4,15.8,6.4,16.6,6.9,19.1z"/>
	<path class="st4" d="M17.7,8l-1.1,1c1.5,0.7,2.5,2.2,2.5,3.8c0,1.4-0.7,2.6-1.7,3.4c0.5-0.6,0.8-1.5,0.8-2.4c0-1.3-0.4-2.4-1.1-3.1
		c0.5,0.7,0.7,1.6,0.7,2.6c0,1.5-0.8,2.7-1.7,3.2c0,0.1,0,0.2,0,0.4c0,0,0,0,0,0c0.1,0.3,0.1,0.7,0.1,1.1c0,0.1,0.1,0.2,0.1,0.3
		c2.4-0.6,4.3-2.9,4.3-5.4C20.5,10.8,19.4,9,17.7,8z"/>
	<path class="st5" d="M7.1,7.9L7.1,7.9C7.1,7.9,7.1,7.9,7.1,7.9C7.1,7.9,7.1,7.9,7.1,7.9L7.1,7.9C7,7.7,7,7.7,6.9,7.7L4.9,6.5
		c-0.2-0.1-0.4,0-0.4,0.2v1.1c-1.9,0.9-3.1,2.8-3.1,5c0,2.7,2,5.1,4.7,5.5c0.1-0.4,0-0.9-0.1-1.4c-1.8-0.5-3.2-2.1-3.2-4.1
		c0-0.4,0.1-0.9,0.2-1.3c0,0.5,0.1,1,0.3,1.5c0.5,1.2,1.3,2,2.3,2.3c-0.7-0.4-1.3-1.1-1.7-2.1C3.3,12,3.5,10.6,4.1,9.7
		c0.6-0.6,1.4-1,2.4-1.1l0.2,0C6.8,8.6,7,8.5,7,8.3C7.1,8.2,7.1,8,7.1,7.9z"/>
	<path class="st6" d="M17.4,6.7l-0.9-0.4c0-0.1,0-0.2,0-0.2c0-3.1-2.5-5.6-5.6-5.6c-3,0-5.4,2.3-5.6,5.2c0.1,0,0.1,0,0.2,0.1
		l0.2,0.1c0,0,0,0,0,0c0,0,0,0,0,0l1,0.6c0-0.1,0-0.2,0-0.4c0,0,0-0.1,0-0.1c0,0,0,0,0,0c0.3-0.9,0.8-2.2,2-2.8
		c0.8-0.4,1.6-0.5,2.2-0.4C10.3,2.4,9.3,2.5,8.2,3C8.1,3,7.9,3.1,7.8,3.2c0.8-0.8,1.9-1.4,3.1-1.4c2.3,0,4.2,1.9,4.2,4.2
		c0,0.6-0.1,1.1-0.3,1.6l-0.1,0.2c-0.1,0.2-0.1,0.3,0,0.5c0.1,0.2,0.2,0.3,0.4,0.3l0.1,0l0,0c0.1,0,0.2,0,0.2-0.1l1.9-1.4
		C17.7,7,17.7,6.8,17.4,6.7z"/>
</g>
<path class="st5" d="M33.9,11.4c-0.1,0.1-0.2,0.1-0.3,0.1h-1c-0.1,0-0.3-0.1-0.3-0.2l-0.8-2.1h-1.9l0.6-1.4h0.8l-0.8-2.1l-0.5,1.4
	c0,0,0,0,0,0L29.2,8L28,11.3c-0.1,0.1-0.2,0.2-0.3,0.2h-0.9c-0.1,0-0.2-0.1-0.3-0.1c-0.1-0.1-0.1-0.2,0-0.3l3-7.4
	c0.1-0.1,0.2-0.2,0.3-0.2h1c0.1,0,0.3,0.1,0.3,0.2l3,7.4C34,11.2,34,11.3,33.9,11.4z M41.4,11l-2.2-3.2C40.4,7.3,41,6.5,41,5.5
	c0-1.4-0.8-2.1-2.3-2.1h-3c-0.2,0-0.4,0.2-0.4,0.3v7.4c0,0.2,0.2,0.3,0.4,0.3h0.9c0.2,0,0.4-0.2,0.4-0.3V4.9h1.6
	c0.6,0,0.8,0.2,0.8,0.7c0,0.4-0.1,0.9-1.2,1.2l-0.6,1.5l2.1,3.1c0.1,0.1,0.2,0.2,0.3,0.2h1.2c0.1,0,0.2-0.1,0.3-0.2
	C41.5,11.2,41.5,11.1,41.4,11z M48.7,3.4h-0.9c-0.2,0-0.3,0.2-0.3,0.3v4.6c0,1.2-0.5,1.8-1.7,1.8c-1.1,0-1.7-0.6-1.7-1.8V3.7
	c0-0.2-0.2-0.3-0.3-0.3h-0.9c-0.2,0-0.4,0.2-0.4,0.3v4.6c0,2.1,1.1,3.3,3.3,3.3c2.1,0,3.3-1.1,3.3-3.3V3.7C49,3.6,48.9,3.4,48.7,3.4
	z M53.9,6.7H53c-0.7,0-0.9-0.3-0.9-0.9c0-0.3,0-1,1.6-1c0.8,0,1.5,0.1,2.1,0.4c0,0,0.1,0,0.1,0c0.1,0,0.1,0,0.2-0.1
	c0.1-0.1,0.2-0.2,0.2-0.3V4c0-0.1-0.1-0.3-0.2-0.3c-0.7-0.2-1.5-0.3-2.4-0.3c-2.6,0-3.2,1.3-3.2,2.5c0,1.5,0.9,2.4,2.5,2.4h0.9
	c0.7,0,1,0.2,1,0.9c0,0.8-0.4,1.1-1.5,1.1c-0.8,0-1.6-0.1-2.2-0.4c0,0-0.1,0-0.1,0c-0.1,0-0.1,0-0.2,0.1c-0.1,0.1-0.2,0.2-0.2,0.3
	v0.9c0,0.1,0.1,0.3,0.2,0.3c0.8,0.2,1.6,0.3,2.5,0.3c2.5,0,3.1-1.4,3.1-2.5C56.5,7.5,55.6,6.7,53.9,6.7z"/>
<g>
	<path class="st3" d="M32.1,13.7h-2.2c-0.1,0-0.1,0-0.1,0.1v3.4c0,0.1,0,0.1,0.1,0.1h2.2c0.1,0,0.1,0,0.1-0.1v-0.2
		c0-0.1,0-0.1-0.1-0.1h-1.9v-1.2h1.6c0.1,0,0.1,0,0.1-0.1v-0.2c0-0.1,0-0.1-0.1-0.1h-1.6v-1.1h1.9c0.1,0,0.1,0,0.1-0.1v-0.2
		C32.2,13.8,32.2,13.7,32.1,13.7z"/>
	<path class="st3" d="M36.6,13.7h-0.3c-0.1,0-0.1,0-0.1,0.1v2.6l-1.9-2.6c0,0-0.1,0-0.1,0h-0.3c-0.1,0-0.1,0-0.1,0.1v3.4
		c0,0.1,0,0.1,0.1,0.1h0.3c0.1,0,0.1,0,0.1-0.1v-2.6l1.9,2.7c0,0,0.1,0,0.1,0h0.3c0.1,0,0.1,0,0.1-0.1v-3.4
		C36.7,13.8,36.6,13.7,36.6,13.7z"/>
	<path class="st3" d="M40.8,13.7h-2.2c-0.1,0-0.1,0-0.1,0.1v3.4c0,0.1,0,0.1,0.1,0.1h2.2c0.1,0,0.1,0,0.1-0.1v-0.2
		c0-0.1,0-0.1-0.1-0.1H39v-1.2h1.6c0.1,0,0.1,0,0.1-0.1v-0.2c0-0.1,0-0.1-0.1-0.1H39v-1.1h1.9c0.1,0,0.1,0,0.1-0.1v-0.2
		C40.9,13.8,40.9,13.7,40.8,13.7z"/>
	<path class="st3" d="M44.3,15.7c0.5-0.1,0.8-0.5,0.8-1c0-0.6-0.5-1-1.2-1h-1.4c-0.1,0-0.1,0-0.1,0.1v3.4c0,0.1,0,0.1,0.1,0.1h0.3
		c0.1,0,0.1,0,0.1-0.1v-1.4h0.9l0.8,1.5c0,0,0.1,0.1,0.1,0.1h0.3c0,0,0.1,0,0.1,0c0,0,0-0.1,0-0.1L44.3,15.7z M42.9,14.1h1
		c0.3,0,0.7,0.1,0.7,0.6c0,0.5-0.4,0.6-0.7,0.6h-1V14.1z"/>
	<path class="st3" d="M49.2,15.3H48c-0.1,0-0.1,0-0.1,0.1v0.2c0,0.1,0,0.1,0.1,0.1h0.9V16c0,0.3-0.1,0.4-0.2,0.6
		c-0.2,0.2-0.4,0.3-0.7,0.3c-0.2,0-0.5-0.1-0.6-0.2c-0.2-0.2-0.3-0.5-0.3-1.1c0-0.7,0-0.9,0.3-1.1c0.2-0.1,0.4-0.2,0.6-0.2
		c0.4,0,0.8,0.3,0.9,0.7c0,0,0.1,0.1,0.1,0.1h0.3c0,0,0.1,0,0.1,0c0,0,0-0.1,0-0.1c-0.1-0.6-0.7-1.1-1.4-1.1c-0.4,0-0.7,0.1-1,0.4
		c-0.4,0.3-0.4,0.7-0.4,1.4c0,0.8,0,1.1,0.4,1.4c0.3,0.2,0.6,0.4,1,0.4c0.4,0,0.8-0.2,1-0.4c0.2-0.2,0.3-0.5,0.3-0.9v-0.5
		C49.3,15.4,49.3,15.3,49.2,15.3z"/>
	<path class="st3" d="M53.1,13.8C53,13.7,53,13.7,53.1,13.8l-0.4,0c0,0-0.1,0-0.1,0.1l-0.8,1.5l-0.8-1.5c0,0-0.1-0.1-0.1-0.1h-0.3
		c0,0-0.1,0-0.1,0c0,0,0,0.1,0,0.1l1.1,1.9v1.4c0,0.1,0,0.1,0.1,0.1h0.3c0.1,0,0.1,0,0.1-0.1v-1.4L53.1,13.8
		C53.1,13.8,53.1,13.8,53.1,13.8z"/>
</g>
</svg>
