<?xml version="1.0" encoding="utf-8"?>
<!-- Generator: Adobe Illustrator 22.0.0, SVG Export Plug-In . SVG Version: 6.00 Build 0)  -->
<svg version="1.1" id="Layer_1" xmlns="http://www.w3.org/2000/svg" xmlns:xlink="http://www.w3.org/1999/xlink" x="0px" y="0px"
	 viewBox="0 0 1165.7 672.9" style="enable-background:new 0 0 1165.7 672.9;" xml:space="preserve">
<style type="text/css">
	.st0{fill:#E6E6E6;}
	.st1{fill:#303C42;}
	.st2{fill:#BBDEFB;}
	.st3{opacity:0.1;enable-background:new    ;}
	.st4{fill:#FFFFFF;}
	.st5{fill:#AEE21E;}
	.st6{fill:#609E38;}
	.st7{fill:#2895B2;}
	.st8{fill:#186689;}
	.st9{fill:#F9EC23;}
	.st10{opacity:0.5;fill:#FFFFFF;enable-background:new    ;}
	.st11{fill:#FFFFFF;stroke:#303C42;stroke-width:22;stroke-linecap:round;stroke-linejoin:round;stroke-miterlimit:10;}
	.st12{fill:none;stroke:#303C42;stroke-width:22;stroke-linecap:round;stroke-linejoin:round;stroke-miterlimit:10;}
	.st13{fill:#97EBFF;stroke:#303C42;stroke-width:5;stroke-miterlimit:10;}
	.st14{fill:none;stroke:#AEE21E;stroke-width:5;stroke-miterlimit:10;}
	.st15{fill:#2895B2;stroke:#303C42;stroke-width:5;stroke-miterlimit:10;}
	.st16{fill:#186689;stroke:#303C42;stroke-width:5;stroke-miterlimit:10;}
	.st17{fill:#FFFFFF;stroke:#303C42;stroke-width:5;stroke-linecap:round;stroke-linejoin:round;stroke-miterlimit:10;}
	.st18{fill:none;stroke:#303C42;stroke-width:5;stroke-linecap:round;stroke-linejoin:round;stroke-miterlimit:10;}
</style>
<g>
	<path class="st0" d="M308.1,500.8c-5.5,0-10.2-4.1-10.9-9.5l-5-37.9c-0.6-4.7,1.8-9.2,6-11.3l43.3-21.7c1.5-0.8,3.2-1.2,4.9-1.2
		c1.4,0,2.9,0.3,4.2,0.8c2.9,1.2,5.2,3.7,6.2,6.7c2.5,7.4,6.2,14.4,11.2,20.8c2.5,3.2,3,7.6,1.3,11.3c-5.2,11.3-9.6,22.5-13.5,34.3
		c-1.5,4.5-5.7,7.5-10.4,7.5H308.1z"/>
	<path class="st1" d="M346.4,430.2c2.8,8.4,7,16.5,12.9,24.1c-5.1,11.1-9.8,22.9-14,35.5h-37.2l-5-37.9L346.4,430.2 M346.4,408.2
		c-3.4,0-6.7,0.8-9.8,2.3l-43.3,21.7c-8.4,4.2-13.2,13.3-12,22.6l5,37.9c1.5,10.9,10.8,19.1,21.8,19.1h37.2
		c9.5,0,17.9-6.1,20.9-15.1c3.8-11.4,8.1-22.2,13.1-33.2c3.4-7.4,2.4-16.1-2.6-22.6c-4.2-5.5-7.3-11.3-9.4-17.6
		c-2-6.1-6.6-10.9-12.5-13.4C352.1,408.8,349.3,408.2,346.4,408.2L346.4,408.2z"/>
</g>
<polygon class="st2" points="313.8,532.4 310.9,511.1 342.1,511.1 342.1,532.4 "/>
<polygon class="st3" points="323.2,441.8 303,451.9 308.1,489.8 329.6,489.8 "/>
<polygon class="st3" points="332.5,511.1 310.9,511.1 313.8,532.4 335.3,532.4 "/>
<g>
	<path class="st4" d="M320.4,628.8c-6,0-10.9-4.8-11-10.8c-0.3-20.8-1.7-42-4.1-62.9c-0.4-3.1,0.6-6.2,2.7-8.6
		c2.1-2.3,5.1-3.7,8.2-3.7h36.2v-40.5c0-1.1,0.2-2.2,0.5-3.3c3.4-10.8,7.3-21.5,12.1-32.7c1.4-3.2,4.1-5.6,7.5-6.4
		c0.9-0.2,1.7-0.3,2.6-0.3c2.5,0,5,0.9,7,2.5c13.4,11.1,28.1,16.7,43.6,16.7c34.4,0,62-21.8,79-40.1c2.1-2.3,5.1-3.5,8.1-3.5
		c1.4,0,2.7,0.2,4,0.8c4.2,1.7,7,5.7,7,10.2v11.1l112.1-56c1.6-0.8,3.2-1.2,4.9-1.2c2,0,4,0.6,5.8,1.6c3.2,2,5.2,5.5,5.2,9.4v206.7
		c0,6.1-4.9,11-11,11H320.4z"/>
	<path class="st1" d="M640.8,411v206.7H320.4c-0.4-21.4-1.8-42.8-4.2-64h36.6c5.9,0,10.7-4.8,10.7-10.7v-40.9
		c3.5-11.2,7.5-21.7,11.7-31.7c15.2,12.5,32.1,19.2,50.6,19.2c32.5,0,62.5-17.2,87-43.6v11.6c0,3.7,1.9,7.1,5.1,9.1
		c1.7,1.1,3.6,1.6,5.6,1.6c1.6,0,3.3-0.4,4.8-1.1L640.8,411 M640.8,389c-3.4,0-6.7,0.8-9.8,2.3l-97.1,48.5
		c-1.9-6.4-6.6-11.7-13-14.2c-2.6-1-5.3-1.5-8.1-1.5c-6,0-11.9,2.4-16.1,7c-15.5,16.7-40.5,36.6-70.9,36.6c-13,0-25-4.6-36.6-14.2
		c-4-3.3-8.9-5-14-5c-1.7,0-3.5,0.2-5.2,0.6c-6.7,1.6-12.3,6.4-15,12.8c-4.9,11.5-9,22.5-12.5,33.7c-0.7,2.1-1,4.3-1,6.6v29.5h-25.2
		c-6.3,0-12.2,2.7-16.4,7.4c-4.2,4.7-6.2,10.9-5.4,17.2c2.4,20.6,3.7,41.4,4.1,61.8c0.2,12,10,21.6,22,21.6h320.4
		c12.2,0,22-9.8,22-22V411c0-7.6-3.9-14.7-10.4-18.7C648.8,390.1,644.8,389,640.8,389L640.8,389z"/>
</g>
<path class="st3" d="M342,617c-0.4-21.1-2-42.3-4.3-63.3h-21.5c2.4,21.2,3.9,42.6,4.2,64H342C342,617.5,342.1,617.3,342,617z"/>
<path class="st1" d="M406.1,500.4v42.7c0,5.9,4.8,10.7,10.7,10.7h64c5.9,0,10.7-4.8,10.7-10.7v-42.7c0-5.9-4.8-10.7-10.7-10.7h-55
	h-9C410.9,489.8,406.1,494.5,406.1,500.4z"/>
<rect x="427.5" y="511.1" class="st2" width="42.7" height="21.3"/>
<path class="st1" d="M544.8,553.8h64c5.9,0,10.7-4.8,10.7-10.7v-42.7c0-5.9-4.8-10.7-10.7-10.7h-64c-5.9,0-10.7,4.8-10.7,10.7v42.7
	C534.1,549,538.9,553.8,544.8,553.8z"/>
<rect x="555.5" y="511.1" class="st2" width="42.7" height="21.3"/>
<path class="st5" d="M363.5,406.1c0-69.9,102.2-129.7,185.8-129.7c3.4,0,6.2,2.8,6.2,6.2c0,83.6-59.9,185.8-129.7,185.8
	c-15.1,0-28.9-6.1-41.3-17.9c25.4-48.5,62.9-81.9,122.4-111.2c5.3-2.6,7.5-9,4.9-14.3c-2.6-5.3-9-7.4-14.3-4.9
	c-59.8,29.4-99.5,64.2-127,112.2C366,424.1,363.5,415.4,363.5,406.1z"/>
<path class="st6" d="M549.3,276.4c-2,0-4.2,0.2-6.2,0.3C538.8,359,507.3,411,427.5,447.1c-7.2,3.3-33.2,6.2-42.8,3.6
	c12.4,11.6,26.1,17.7,41.1,17.7c69.9,0,129.7-102.2,129.7-185.8C555.5,279.2,552.7,276.4,549.3,276.4z"/>
<path class="st7" d="M388.7,101.3c-4.1,0-8,0.8-11.6,2.2c0-0.4,0-0.8,0-1.2c0-24.1-19.5-43.6-43.6-43.6s-43.6,19.5-43.6,43.6
	c0,0.4,0,0.8,0,1.2c-3.6-1.4-7.5-2.2-11.6-2.2c-17.1,0-31,13.9-31,31s13.9,31,31,31h110.4c17.1,0,31-13.9,31-31
	C419.7,115.2,405.8,101.3,388.7,101.3z"/>
<path class="st8" d="M444,72.2c-4.1,0-8,0.8-11.6,2.2c0-0.4,0-0.8,0-1.2c0-24.1-19.5-43.6-43.6-43.6c-19.8,0-36.5,13.2-41.8,31.3
	c17.5,5.7,30.2,22.1,30.2,41.5c0,0.4,0,0.8,0,1.2c3.6-1.4,7.5-2.2,11.6-2.2c17.1,0,31,13.9,31,31c0,0.6,0,1.3-0.1,1.9H444
	c17.1,0,31-13.9,31-31C475.1,86.1,461.2,72.2,444,72.2z"/>
<g>
	<path class="st1" d="M444,62.2c-0.9,0-1.8,0-2.7,0.1c-5.1-24.3-26.7-42.7-52.5-42.7c-20.4,0-39,11.8-48,29.6
		c-2.4-0.3-4.9-0.5-7.4-0.5c-25.8,0-47.4,18.3-52.5,42.7c-0.9-0.1-1.8-0.1-2.7-0.1c-22.6,0-41,18.4-41,41s18.4,41,41,41h110.4
		c18.5,0,34.1-12.3,39.3-29.1H444c22.6,0,41-18.4,41-41S466.7,62.2,444,62.2z M388.7,153.4H278.3c-11.6,0-21-9.4-21-21s9.4-21,21-21
		c2.7,0,5.4,0.5,7.9,1.5c3.1,1.3,6.7,0.9,9.5-1.1c2.8-1.9,4.4-5.1,4.3-8.5l0-0.4c0-0.2,0-0.3,0-0.5c0-18.5,15.1-33.6,33.6-33.6
		c3.9,0,7.6,0.7,11,1.9c0.4,0.1,0.8,0.3,1.2,0.4c0.7,0.3,1.3,0.5,2,0.8c0.2,0.1,0.3,0.2,0.5,0.2c7.7,3.7,13.7,10.3,16.8,18.3
		c0.1,0.2,0.2,0.5,0.3,0.7c0.1,0.4,0.3,0.8,0.4,1.2c0.2,0.6,0.4,1.2,0.5,1.8c0.1,0.3,0.1,0.5,0.2,0.8c0.1,0.6,0.2,1.1,0.3,1.7
		c0,0.2,0.1,0.4,0.1,0.6c0.1,0.7,0.2,1.5,0.3,2.3c0,0.2,0,0.4,0,0.6c0.1,0.8,0.1,1.6,0.1,2.4c0,0.2,0,0.3,0,0.5l0,0.2l0,0.3
		c0,0,0,0,0,0v0c0,0.1,0,0.2,0,0.4c0,0.3,0,0.6,0,0.9c0,0.1,0,0.3,0.1,0.4c0,0.3,0.1,0.6,0.1,0.8c0,0.2,0.1,0.3,0.1,0.5
		c0.1,0.2,0.1,0.5,0.2,0.7c0.1,0.2,0.1,0.3,0.2,0.5c0.1,0.2,0.2,0.4,0.3,0.6c0.1,0.2,0.2,0.3,0.3,0.5c0.1,0.2,0.2,0.4,0.3,0.6
		c0.1,0.2,0.2,0.3,0.3,0.4c0.1,0.2,0.3,0.4,0.4,0.5c0.1,0.1,0.2,0.2,0.3,0.4c0.2,0.2,0.3,0.4,0.5,0.5c0.1,0.1,0.2,0.1,0.3,0.2
		c0.2,0.2,0.5,0.4,0.7,0.6c0,0,0,0,0,0c0,0,0,0,0,0c0.1,0.1,0.2,0.1,0.3,0.2c0.3,0.2,0.5,0.3,0.8,0.5c0.2,0.1,0.4,0.2,0.6,0.3
		c0.2,0.1,0.4,0.2,0.6,0.2c0.2,0.1,0.4,0.1,0.6,0.2c0.2,0.1,0.4,0.1,0.6,0.2c0.1,0,0.2,0,0.3,0.1c1.9,0.4,3.9,0.2,5.7-0.5
		c2.5-1,5.1-1.5,7.9-1.5c11.6,0,21,9.4,21,21v0C409.7,143.9,400.3,153.4,388.7,153.4z M444,124.2h-15.1c0,0,0-0.1,0-0.1
		c0-0.2-0.1-0.4-0.1-0.5c-0.1-0.4-0.2-0.9-0.3-1.3c-0.1-0.2-0.1-0.5-0.2-0.7c-0.1-0.4-0.2-0.8-0.3-1.1c-0.1-0.2-0.2-0.5-0.2-0.7
		c-0.1-0.4-0.2-0.7-0.4-1.1c-0.1-0.2-0.2-0.5-0.3-0.7c-0.1-0.4-0.3-0.7-0.4-1.1c-0.1-0.2-0.2-0.5-0.3-0.7c-0.2-0.4-0.3-0.7-0.5-1.1
		c-0.1-0.2-0.2-0.4-0.3-0.6c-0.2-0.4-0.4-0.8-0.6-1.2c-0.1-0.1-0.2-0.3-0.2-0.4c-0.3-0.5-0.6-1.1-0.9-1.6c-0.1-0.1-0.2-0.3-0.2-0.4
		c-0.2-0.4-0.5-0.8-0.8-1.2c-0.1-0.2-0.3-0.4-0.4-0.6c-0.2-0.3-0.5-0.6-0.7-1c-0.1-0.2-0.3-0.4-0.5-0.6c-0.2-0.3-0.5-0.6-0.7-0.9
		c-0.2-0.2-0.3-0.4-0.5-0.6c-0.2-0.3-0.5-0.6-0.7-0.8c-0.2-0.2-0.3-0.4-0.5-0.6c-0.3-0.3-0.5-0.6-0.8-0.8c-0.2-0.2-0.3-0.3-0.5-0.5
		c-0.3-0.3-0.6-0.6-1-0.9c-0.1-0.1-0.3-0.3-0.4-0.4c-0.5-0.4-0.9-0.8-1.4-1.2c-0.1-0.1-0.2-0.2-0.3-0.2c-0.4-0.3-0.8-0.6-1.2-0.9
		c-0.2-0.1-0.4-0.3-0.5-0.4c-0.3-0.2-0.6-0.5-1-0.7c-0.2-0.1-0.4-0.3-0.6-0.4c-0.3-0.2-0.6-0.4-1-0.6c-0.2-0.1-0.4-0.3-0.7-0.4
		c-0.3-0.2-0.6-0.4-1-0.6c-0.2-0.1-0.4-0.2-0.7-0.4c-0.3-0.2-0.7-0.4-1-0.5c-0.2-0.1-0.4-0.2-0.6-0.3c-0.4-0.2-0.8-0.4-1.2-0.5
		c-0.2-0.1-0.4-0.2-0.5-0.2c-0.6-0.2-1.2-0.5-1.8-0.7c-0.1,0-0.1,0-0.2-0.1c-0.5-0.2-1-0.4-1.6-0.5c-0.2-0.1-0.4-0.1-0.6-0.2
		c-0.4-0.1-0.8-0.2-1.2-0.3c-0.2-0.1-0.5-0.1-0.7-0.2c-0.4-0.1-0.8-0.2-1.1-0.3c-0.3-0.1-0.5-0.1-0.8-0.2c-0.4-0.1-0.8-0.1-1.1-0.2
		c-0.3,0-0.5-0.1-0.8-0.1c-0.4-0.1-0.8-0.1-1.2-0.2c-0.2,0-0.5-0.1-0.8-0.1c-0.4,0-0.9-0.1-1.3-0.1c-0.2,0-0.4,0-0.6,0
		c-0.7,0-1.3-0.1-2-0.1c-0.9,0-1.8,0-2.7,0.1c-0.2-0.7-0.3-1.5-0.5-2.2c0,0,0-0.1,0-0.1c-0.2-0.7-0.4-1.4-0.6-2.1
		c0-0.1,0-0.1-0.1-0.2c-3.9-13.1-12.8-24.3-24.8-31.1c6-9.8,16.9-16.2,28.7-16.2c18.5,0,33.6,15.1,33.6,33.6c0,0.2,0,0.3,0,0.5
		l0,0.4c-0.1,3.4,1.5,6.6,4.3,8.5c2.8,1.9,6.3,2.3,9.4,1.1c2.5-1,5.1-1.5,7.9-1.5c11.6,0,21,9.4,21,21S455.6,124.2,444,124.2z"/>
</g>
<g>
	<path class="st0" d="M182.5,628.8c-2.9,0-5.8-1.2-7.8-3.3c-2.1-2.1-3.2-5-3.2-7.9c0.4-24.8,2.3-49.8,5.6-74.2L212.9,275
		c0.7-5.5,5.4-9.5,10.9-9.5h45.3c5.5,0,10.2,4.1,10.9,9.5l35.8,268.5c3.3,24.4,5.1,49.3,5.6,74.1c0.1,3-1.1,5.8-3.2,7.9
		c-2.1,2.1-4.9,3.3-7.8,3.3H182.5z"/>
	<path class="st1" d="M269.1,276.4l35.8,268.5c3.2,24,5,48.5,5.5,72.9H182.5c0.4-24.4,2.2-48.9,5.5-72.9l35.8-268.4H269.1
		 M269.1,254.4h-45.3c-11,0-20.4,8.2-21.8,19.1L166.2,542c-3.3,24.8-5.2,50.1-5.7,75.4c-0.1,5.9,2.2,11.6,6.3,15.8
		c4.1,4.2,9.8,6.6,15.7,6.6h127.8c5.9,0,11.6-2.4,15.7-6.6c4.1-4.2,6.4-9.9,6.3-15.8c-0.4-25.2-2.3-50.6-5.6-75.4l-35.8-268.5
		C289.5,262.6,280.2,254.4,269.1,254.4L269.1,254.4z"/>
</g>
<path class="st10" d="M196,550.2l35.8-268.4h38l-0.7-5.4h-45.3L188,544.9c-3.2,24-5.1,48.5-5.5,72.9h8.2
	C191.4,595.1,193,572.5,196,550.2z"/>
<g>
	<g>
		<path class="st4" d="M53.6,628.8c-2.9,0-5.8-1.2-7.8-3.3c-2.1-2.1-3.2-4.9-3.2-7.9c0.3-23.2,1.4-46.4,3.5-68.9l12.3-134.9
			c5.5-60.5,8.3-122.7,8.3-184.8v-19.3c0-6.1,4.9-11,11-11h80.7c6.1,0,11,4.9,11,11V229c0,62.1,2.8,124.3,8.3,184.8L190,548.7
			c2.1,22.6,3.2,45.8,3.5,68.9c0,2.9-1.1,5.8-3.2,7.9s-4.9,3.3-7.8,3.3H53.6z"/>
		<path class="st1" d="M158.4,209.8V229c0,62.4,2.8,124.9,8.4,185.8l12.3,134.9c2,22.3,3.2,45.1,3.5,68.1h-129
			c0.3-22.9,1.4-45.8,3.5-68.1l12.3-134.9c5.6-60.8,8.4-123.3,8.4-185.8v-19.3H158.4 M158.4,187.8H77.7c-12.2,0-22,9.8-22,22V229
			c0,61.8-2.8,123.6-8.3,183.8L35.1,547.7c-2.1,22.9-3.3,46.4-3.6,69.8c-0.1,5.9,2.2,11.5,6.4,15.7c4.1,4.2,9.8,6.5,15.6,6.5h129
			c5.9,0,11.5-2.4,15.6-6.5c4.1-4.2,6.4-9.8,6.4-15.7c-0.3-23.5-1.5-47-3.6-69.8l-12.3-134.9c-5.5-60.2-8.3-122-8.3-183.8v-19.3
			C180.4,197.6,170.6,187.8,158.4,187.8L158.4,187.8z"/>
	</g>
</g>
<line class="st11" x1="739.5" y1="625.8" x2="892.5" y2="625.8"/>
<line class="st11" x1="865.5" y1="593.8" x2="968.5" y2="593.8"/>
<line class="st11" x1="989.5" y1="625.8" x2="1092.5" y2="625.8"/>
<line class="st12" x1="96.5" y1="123.8" x2="96.5" y2="153.8"/>
<line class="st12" x1="137.5" y1="53.8" x2="137.5" y2="139.8"/>
</svg>
